HIERARCHY
ROOT Hips
{
	OFFSET	0.00	0.00	0.00
	CHANNELS 6 Xposition Yposition Zposition Zrotation Xrotation Yrotation
	JOINT LeftUpLeg
	{
		OFFSET	 0.126116	-0.065224	 0.014019
		CHANNELS 3 Zrotation Xrotation Yrotation
		JOINT LeftLeg
		{
			OFFSET	 0.000000	 0.569914	 0.000000
			CHANNELS 3 Zrotation Xrotation Yrotation
			JOINT LeftFoot
			{
				OFFSET	 0.000000	 0.544423	 0.000000
				CHANNELS 3 Zrotation Xrotation Yrotation
				JOINT LeftToeBase
				{
					OFFSET	 0.000000	 0.207117	 0.000000
					CHANNELS 3 Zrotation Xrotation Yrotation
					End Site
					{
						OFFSET	 0.000000	 0.207117	 0.000000
					}
				}
			}
		}
	}
	JOINT RightUpLeg
	{
		OFFSET	-0.124023	-0.065224	 0.008373
		CHANNELS 3 Zrotation Xrotation Yrotation
		JOINT RightLeg
		{
			OFFSET	 0.000000	 0.570047	 0.000000
			CHANNELS 3 Zrotation Xrotation Yrotation
			JOINT RightFoot
			{
				OFFSET	 0.000000	 0.544354	 0.000000
				CHANNELS 3 Zrotation Xrotation Yrotation
				JOINT RightToeBase
				{
					OFFSET	 0.000000	 0.207540	 0.000000
					CHANNELS 3 Zrotation Xrotation Yrotation
					End Site
					{
						OFFSET	 0.000000	 0.207540	 0.000000
					}
				}
			}
		}
	}
	JOINT Spine
	{
		OFFSET	 0.000184	 0.117403	 0.007763
		CHANNELS 3 Zrotation Xrotation Yrotation
		JOINT Spine1
		{
			OFFSET	 0.000000	 0.137269	 0.000000
			CHANNELS 3 Zrotation Xrotation Yrotation
			JOINT Spine2
			{
				OFFSET	 0.000000	 0.156879	 0.000000
				CHANNELS 3 Zrotation Xrotation Yrotation
				JOINT LeftShoulder
				{
					OFFSET	 0.080501	 0.160143	 0.002496
					CHANNELS 3 Zrotation Xrotation Yrotation
					JOINT LeftArm
					{
						OFFSET	 0.000000	 0.164363	 0.000000
						CHANNELS 3 Zrotation Xrotation Yrotation
						JOINT LeftForeArm
						{
							OFFSET	 0.000000	 0.364576	 0.000000
							CHANNELS 3 Zrotation Xrotation Yrotation
							JOINT LeftHand
							{
								OFFSET	 0.000000	 0.360812	 0.000000
								CHANNELS 3 Zrotation Xrotation Yrotation
								JOINT LeftHandIndex1
								{
									OFFSET	 0.000000	 0.086006	 0.000000
									CHANNELS 3 Zrotation Xrotation Yrotation
									JOINT LeftHandIndex2
									{
										OFFSET	 0.000000	 0.047237	 0.000000
										CHANNELS 3 Zrotation Xrotation Yrotation
										JOINT LeftHandIndex3
										{
											OFFSET	-0.004284	 0.038165	 0.000551
											CHANNELS 3 Zrotation Xrotation Yrotation
											End Site
											{
												OFFSET	-0.004284	 0.038165	 0.000551
											}
										}
									}
								}
							}
						}
					}
				}
				JOINT Neck
				{
					OFFSET	 0.000000	 0.176489	 0.000000
					CHANNELS 3 Zrotation Xrotation Yrotation
					JOINT Head
					{
						OFFSET	 0.000000	 0.077941	 0.001747
						CHANNELS 3 Zrotation Xrotation Yrotation
						End Site
						{
							OFFSET	 0.000000	 0.077941	 0.001747
						}
					}
				}
				JOINT RightShoulder
				{
					OFFSET	-0.080363	 0.159706	-0.000306
					CHANNELS 3 Zrotation Xrotation Yrotation
					JOINT RightArm
					{
						OFFSET	 0.000000	 0.164196	 0.000000
						CHANNELS 3 Zrotation Xrotation Yrotation
						JOINT RightForeArm
						{
							OFFSET	 0.000000	 0.365611	 0.000000
							CHANNELS 3 Zrotation Xrotation Yrotation
							JOINT RightHand
							{
								OFFSET	 0.000000	 0.360648	 0.000000
								CHANNELS 3 Zrotation Xrotation Yrotation
								JOINT RightHandIndex1
								{
									OFFSET	 0.000000	 0.069977	 0.000000
									CHANNELS 3 Zrotation Xrotation Yrotation
									JOINT RightHandIndex2
									{
										OFFSET	 0.000000	 0.052305	 0.000000
										CHANNELS 3 Zrotation Xrotation Yrotation
										JOINT RightHandIndex3
										{
											OFFSET	 0.009002	 0.042196	 0.000782
											CHANNELS 3 Zrotation Xrotation Yrotation
											End Site
											{
												OFFSET	 0.009002	 0.042196	 0.000782
											}
										}
									}
								}
							}
						}
					}
				}
			}
		}
	}
}
MOTION
Frames:    9
Frame Time: 0.03333334
-0.039644	 1.185472	-3.202047	-4.009951	 0.047614	 177.710200	 179.998100	 30.937290	-32.693060	 4.784990	-32.183830	 0.565694	 0.471981	 67.011600	 15.162930	 1.401150	 29.837590	-2.760654	 167.243000	-7.160255	 15.165250	-5.348189	-51.105920	 1.850329	 15.157440	 46.085240	-5.070025	-7.303998	 60.908340	 12.623450	-4.346696	 6.205237	 9.646064	-1.809114	 3.406800	 3.147585	 0.756241	-4.432417	-3.527516	-121.201300	 4.427512	 92.540150	-21.872630	 52.547530	 21.184600	 4.753387	-0.245683	-0.073725	 0.011144	 1.913327	 38.487480	 4.374111	 20.219600	-1.556522	-5.868355	 25.464250	 2.820857	 5.582664	 10.308940	-0.073354	-0.122419	-5.215185	-0.630375	-2.146031	-1.834561	-5.359376	 119.261400	 0.976034	-91.321950	-22.533280	 42.523280	 5.992909	-4.775158	-0.187671	 0.050798	-17.132620	-5.853878	 3.803474	-2.794743	 26.060370	 1.510343	 16.121680	 45.971360	-12.248450	-8.529922	 23.754390	-1.211925
-0.042732	 1.196535	-3.289837	-3.818138	 0.434554	-179.940400	 178.958000	 27.455400	-30.232300	 5.332019	-35.033940	 0.559014	-4.394793	 71.377980	 18.357160	 1.371405	 29.455600	-2.747429	 166.427900	 2.788423	 17.225060	-8.489172	-63.007380	-0.396921	 13.520600	 55.127000	-5.388729	-2.742850	 43.894220	 5.779113	-3.697330	 6.633120	 7.255932	-1.649914	 3.194554	 2.620149	 0.819679	-4.170717	-3.683847	-121.691600	 5.125302	 92.914030	-12.151660	 52.444140	 14.512600	 4.743225	-0.245180	-0.073731	 3.256732	 1.534994	 34.786620	 4.434961	 20.486080	-1.649687	-5.862531	 23.887800	 2.642642	 5.468558	 7.577353	-0.114029	-0.148338	-5.120550	-0.514005	-2.477521	-1.669022	-4.992110	 119.146000	 0.755619	-91.213110	-17.427230	 44.456830	 3.813084	-4.753902	-0.186821	 0.050842	-13.877470	-2.511994	 2.665538	-2.762774	 26.739510	 1.496611	 16.236880	 46.382430	-12.420700	-8.527147	 24.425890	-1.256787
-0.044628	 1.206896	-3.358359	-3.608266	 0.690371	-177.999300	 178.128400	 23.920540	-28.070250	 5.432577	-35.537160	 0.804179	-8.088150	 73.908450	 20.569290	 1.361266	 29.324750	-2.742963	 165.817200	 9.864840	 19.080730	-10.922880	-68.355590	-2.019842	 11.128610	 60.967850	-4.576281	-1.587439	 32.141810	 3.007063	-3.057421	 6.928459	 5.201140	-1.545956	 3.030780	 2.173572	 0.903835	-3.941038	-3.848999	-122.004900	 5.686752	 93.214900	-4.509430	 51.650500	 9.457565	 4.723099	-0.244133	-0.073746	 7.074416	 0.836013	 30.914470	 4.502057	 20.515290	-1.713988	-5.861703	 22.689890	 2.508746	 5.382850	 5.545979	-0.147674	-0.167614	-5.029024	-0.405079	-2.687691	-1.564363	-4.679350	 119.031100	 0.558156	-91.115550	-13.240120	 45.809570	 1.939696	-4.733477	-0.186041	 0.050917	-10.815390	 0.500570	 1.386791	-2.726461	 27.212260	 1.479860	 16.315510	 46.657530	-12.537430	-8.524812	 24.903490	-1.288865
-0.045426	 1.222883	-3.428255	-3.219474	 0.631219	-176.426200	 177.618500	 19.332480	-26.457710	 5.007822	-33.367910	 2.138685	-6.350462	 75.792360	 17.343910	 1.416648	 30.035520	-2.767617	 165.711500	 15.496060	 21.199660	-9.863053	-66.299800	-0.628371	 7.474765	 66.760280	-2.028181	-1.707939	 33.359720	 3.909953	-2.190294	 7.003334	 3.140734	-1.470381	 2.804487	 1.698449	 1.065512	-3.628335	-4.139557	-121.839400	 6.088558	 93.404290	 3.234653	 50.545660	 4.707634	 4.710780	-0.243484	-0.073810	 13.335160	-1.167953	 24.516880	 4.629108	 19.694500	-1.707786	-5.862273	 22.174840	 2.451533	 5.354689	 4.883114	-0.159288	-0.173492	-4.895185	-0.259766	-2.574863	-1.614910	-4.384978	 118.849800	 0.329787	-91.001520	-8.853489	 47.176440	-0.342404	-4.723629	-0.185646	 0.050895	-8.134287	 3.328526	-0.564544	-2.654205	 27.206970	 1.443863	 16.298140	 46.597140	-12.511710	-8.524559	 24.951560	-1.292103
-0.045116	 1.227769	-3.499232	-3.114827	 0.171699	-175.304500	 177.548800	 16.087380	-25.325340	 5.039177	-33.323180	 3.549144	-5.033784	 78.833660	 14.544480	 1.457871	 30.558350	-2.786376	 163.884800	 22.801040	 24.908240	-9.357372	-65.180980	 0.611781	 3.919919	 70.877250	-0.036884	-1.737978	 33.652240	 4.018343	-1.760071	 6.815017	 1.733450	-1.407907	 2.884740	 1.304997	 1.111374	-3.665074	-4.392653	-121.715600	 6.657544	 93.680630	 11.064920	 48.697400	 0.099723	 4.768346	-0.246440	-0.073604	 17.407610	-2.807030	 20.578760	 4.673903	 19.462150	-1.708565	-5.862570	 22.010950	 2.433370	 5.345935	 4.677630	-0.162951	-0.175627	-4.852618	-0.153338	-2.406700	-1.802188	-4.300034	 118.683100	 0.066987	-90.872990	-4.494295	 48.253570	-2.771161	-4.737250	-0.186188	 0.050854	-6.952504	 5.030642	-2.088198	-2.496139	 26.322990	 1.360597	 16.035390	 45.657000	-12.118470	-8.528477	 24.121480	-1.236418
-0.044286	 1.226713	-3.570159	-3.145842	-0.569045	-174.295000	 177.527800	 13.223840	-24.094950	 5.042535	-33.549450	 4.906112	-1.191378	 82.004390	 9.311252	 1.496331	 31.041320	-2.804187	 161.240700	 29.969400	 29.767220	-8.303856	-62.171940	 2.676924	 1.264829	 74.430010	 0.898656	-1.713154	 33.465480	 3.691810	-1.527183	 6.468518	 0.600941	-1.404127	 3.102366	 0.994213	 1.124527	-3.882725	-4.657213	-121.602800	 7.390985	 94.039560	 18.826870	 45.899460	-3.879804	 4.846138	-0.250454	-0.073238	 21.283700	-4.262573	 17.617550	 4.678591	 19.529160	-1.714045	-5.862547	 22.022580	 2.434658	 5.346960	 4.701744	-0.162515	-0.175809	-4.855671	-0.055370	-2.186936	-2.089379	-4.320504	 118.504400	-0.247967	-90.720820	 0.032775	 49.122940	-5.301032	-4.756110	-0.186902	 0.050776	-6.158606	 6.465398	-3.366950	-2.275426	 24.838190	 1.246883	 15.631500	 44.106110	-11.497750	-8.533103	 22.697950	-1.141870
-0.043238	 1.224972	-3.648506	-3.159966	-1.263686	-173.370300	 177.500900	 9.218114	-22.872510	 4.797523	-32.251270	 6.100103	 6.341702	 84.678810	 0.164893	 1.531920	 31.484110	-2.820931	 159.842400	 35.092740	 33.415040	-5.911015	-53.865000	 5.940461	-0.881093	 74.153930	 0.633158	-1.691561	 33.294140	 3.393137	-1.319283	 6.133010	-0.522793	-1.314037	 3.449725	 0.621559	 1.097666	-4.149926	-4.900322	-121.503300	 8.064025	 94.367890	 26.329110	 41.897340	-7.414216	 4.885963	-0.252485	-0.073057	 23.918780	-4.928869	 14.296540	 4.682899	 19.590600	-1.719077	-5.862525	 22.033250	 2.435838	 5.347899	 4.723850	-0.162117	-0.175971	-4.858471	 0.034448	-1.985292	-2.352908	-4.338220	 118.341300	-0.537118	-90.582210	 5.105144	 49.707680	-8.363240	-4.760199	-0.187069	 0.050819	-6.035012	 7.773437	-4.744923	-2.078109	 23.476350	 1.149249	 15.290230	 42.681370	-10.955460	-8.535088	 21.392640	-1.056117
-0.041847	 1.222294	-3.730845	-3.156807	-2.005094	-172.374300	 177.461500	 4.312383	-21.487290	 4.255329	-29.240670	 7.298107	 25.382420	 86.262830	-20.641270	 1.570527	 31.959970	-2.839377	 161.035000	 36.471080	 35.159790	-3.380534	-38.103740	 9.399079	 0.836194	 71.841310	-3.787546	-1.669592	 33.109910	 3.072886	-1.096181	 5.773562	-1.712847	-1.215023	 3.718207	 0.236280	 1.068736	-4.388857	-5.162905	-121.400500	 8.787952	 94.720030	 32.608120	 37.138730	-9.556557	 4.870231	-0.251729	-0.073145	 27.335340	-5.575254	 10.537050	 4.687535	 19.656630	-1.724492	-5.862503	 22.044710	 2.437107	 5.348908	 4.747610	-0.161689	-0.176140	-4.861480	 0.130979	-1.768388	-2.636174	-4.356283	 118.166700	-0.848320	-90.434120	 10.330770	 49.942620	-11.498340	-4.745231	-0.186481	 0.050828	-5.656745	 9.393157	-6.243572	-1.871049	 22.012650	 1.051053	 14.951900	 41.147960	-10.398660	-8.534884	 19.990000	-0.964840
-0.038944	 1.215158	-3.808550	-3.089601	-2.441793	-171.657800	 177.975500	 0.236018	-20.350910	 4.019834	-27.873750	 7.704837	 36.177920	 87.081340	-33.154200	 1.766422	 34.302610	-2.937335	 164.466700	 34.722610	 33.890800	-1.737403	-21.959790	 11.335330	 2.407405	 68.236590	-7.486310	-1.680465	 33.279820	 2.892163	-0.841512	 5.511844	-2.818312	-1.121571	 3.832091	-0.078726	 1.059131	-4.526719	-5.327000	-121.308200	 9.268136	 94.950550	 36.117360	 33.790500	-10.791100	 4.850198	-0.250663	-0.073277	 30.148040	-6.456553	 7.911476	 4.736970	 19.790790	-1.749733	-5.862207	 22.214470	 2.455922	 5.358932	 4.983125	-0.157499	-0.171823	-4.891549	 0.202938	-1.595711	-2.819245	-4.239238	 118.098800	-1.117902	-90.308890	 13.947100	 49.742260	-13.228950	-4.729359	-0.185887	 0.050782	-4.365849	 10.360350	-8.373782	-1.703147	 20.015760	 0.974048	 14.554530	 39.164110	-9.715170	-8.530831	 18.080140	-0.841774
